<svg xmlns="http://www.w3.org/2000/svg" viewBox="0 0 16 8">
    <g stroke="none" stroke-width="1" fill="none" fill-rule="evenodd">
        <g transform="translate(-1841.000000, -444.000000)" fill="#222222" fill-rule="nonzero">
            <g transform="translate(1841.000000, 444.000000)">
                <path d="M0,0.5 C0,0.223857625 0.223857625,0 0.5,0 C0.776142375,0 1,0.223857625 1,0.5 L1,7.5 C1,7.77614237 0.776142375,8 0.5,8 C0.223857625,8 0,7.77614237 0,7.5 L0,0.5 Z"></path>
                <path d="M2,1.5 C2,1.22385763 2.22385763,1 2.5,1 C2.77614237,1 3,1.22385763 3,1.5 L3,6.5 C3,6.77614237 2.77614237,7 2.5,7 C2.22385763,7 2,6.77614237 2,6.5 L2,1.5 Z"></path>
                <path d="M5,1.5 C5,1.22385763 5.22385763,1 5.5,1 C5.77614237,1 6,1.22385763 6,1.5 L6,6.5 C6,6.77614237 5.77614237,7 5.5,7 C5.22385763,7 5,6.77614237 5,6.5 L5,1.5 Z"></path>
                <path d="M8,1.5 C8,1.22385763 8.22385763,1 8.5,1 C8.77614237,1 9,1.22385763 9,1.5 L9,6.5 C9,6.77614237 8.77614237,7 8.5,7 C8.22385763,7 8,6.77614237 8,6.5 L8,1.5 Z"></path>
                <path d="M10,1.5 C10,1.22385763 10.2238576,1 10.5,1 C10.7761424,1 11,1.22385763 11,1.5 L11,6.5 C11,6.77614237 10.7761424,7 10.5,7 C10.2238576,7 10,6.77614237 10,6.5 L10,1.5 Z"></path>
                <path d="M13,1.5 C13,1.22385763 13.2238576,1 13.5,1 C13.7761424,1 14,1.22385763 14,1.5 L14,6.5 C14,6.77614237 13.7761424,7 13.5,7 C13.2238576,7 13,6.77614237 13,6.5 L13,1.5 Z"></path>
                <path d="M15,0.5 C15,0.223857625 15.2238576,0 15.5,0 C15.7761424,0 16,0.223857625 16,0.5 L16,7.5 C16,7.77614237 15.7761424,8 15.5,8 C15.2238576,8 15,7.77614237 15,7.5 L15,0.5 Z"></path>
            </g>
        </g>
    </g>
</svg>
