<svg xmlns="http://www.w3.org/2000/svg" viewBox="0 0 24 24">
	<path d="M12,0C5.4,0,0,5.4,0,12c0,2.1,0.6,4.2,1.6,6L0,23.4c-0.1,0.3,0,0.5,0.3,0.7c0.1,0.1,0.3,0.1,0.4,0l5-1.8
	c5.6,3.5,13,1.8,16.5-3.9s1.8-13-3.9-16.5C16.4,0.6,14.2,0,12,0z M12,23c-2.1,0-4.2-0.6-6-1.8c-0.1-0.1-0.3-0.1-0.4,0l-4.3,1.5
	l1.4-4.6c0-0.1,0-0.3,0-0.4c-3.2-5.2-1.5-12,3.7-15.1s12-1.5,15.1,3.7s1.5,12-3.7,15.1C16,22.4,14,23,12,23z"/>
	<path d="M17.3,9H6.7C6.4,9,6.2,8.8,6.2,8.5S6.4,8,6.7,8h10.6c0.3,0,0.5,0.2,0.5,0.5S17.6,9,17.3,9z"/>
	<path d="M17.3,14.7H6.7c-0.3,0-0.5-0.2-0.5-0.5s0.2-0.5,0.5-0.5h10.6c0.3,0,0.5,0.2,0.5,0.5S17.6,14.7,17.3,14.7z"/>
	<path d="M14.3,12H6.7c-0.3,0-0.5-0.2-0.5-0.5S6.4,11,6.7,11h7.6c0.3,0,0.5,0.2,0.5,0.5S14.5,12,14.3,12z"/>
</svg>
