<svg xmlns="http://www.w3.org/2000/svg" viewBox="0 0 23.86 22.83">
    <path d="M23.77,11.41,12.27.72a.51.51,0,0,0-.69,0L.23,11.41a.5.5,0,0,0,0,.71.46.46,0,0,0,.36.16.49.49,0,0,0,.34-.14L2.18,11v11.4a1.05,1.05,0,0,0,1.06,1.06H20.73a1.06,1.06,0,0,0,1.06-1.06V10.94l1.3,1.21a.5.5,0,0,0,.68-.74Zm-9.92,5,.05,6-3.81,0v-6A3.43,3.43,0,0,1,12,15.85,3.22,3.22,0,0,1,13.85,16.38Zm6.88,6-5.83,0-.05-6.14c0-.77-1.56-1.4-2.85-1.4s-2.91.63-2.91,1.4v6.12l-5.91,0V10l8.75-8.24L20.79,10Z" transform="translate(-0.07 -0.59)"/>
</svg>
