<svg xmlns="http://www.w3.org/2000/svg" viewBox="0 0 17 11">
    <g stroke="none" stroke-width="1" fill="none" fill-rule="evenodd">
        <g transform="translate(-1802.000000, -442.000000)" fill-rule="nonzero">
            <g transform="translate(1794.000000, 438.000000)">
                <g transform="translate(7.920000, 4.666667)">
                    <rect fill="#FF5F00" x="6.16149153" y="1.24637681" width="4.49275424" height="8.20289855"></rect>
                    <path d="M6.44674576,5.34782609 C6.44674576,3.68115942 7.2169322,2.20289855 8.40073729,1.24637681 C7.53071186,0.550724638 6.43248305,0.130434783 5.23441525,0.130434783 C2.39613559,0.130434783 0.0998389831,2.46376812 0.0998389831,5.34782609 C0.0998389831,8.23188406 2.39613559,10.5652174 5.23441525,10.5652174 C6.43248305,10.5652174 7.53071186,10.1449275 8.40073729,9.44927536 C7.2169322,8.50724638 6.44674576,7.01449275 6.44674576,5.34782609 Z" fill="#EB001B"></path>
                    <path d="M16.7158983,5.34782609 C16.7158983,8.23188406 14.4196017,10.5652174 11.581322,10.5652174 C10.3832542,10.5652174 9.28502542,10.1449275 8.415,9.44927536 C9.6130678,8.49275362 10.3689915,7.01449275 10.3689915,5.34782609 C10.3689915,3.68115942 9.59880508,2.20289855 8.415,1.24637681 C9.28502542,0.550724638 10.3832542,0.130434783 11.581322,0.130434783 C14.4196017,0.130434783 16.7158983,2.47826087 16.7158983,5.34782609 Z" fill="#F79E1B"></path>
                </g>
            </g>
        </g>
    </g>
</svg>
