<svg xmlns="http://www.w3.org/2000/svg" viewBox="0 0 24 24">
	<path d="M12.8,23.4l-9.2-9.2C3.2,13.8,3,13.2,3,12.7V5.1C3,3.9,3.9,3,5.1,3h7.6c0.6,0,1.1,0.2,1.5,0.6l9.2,9.2c0,0,0,0,0,0
	c0.8,0.8,0.8,2.2,0,3l-7.6,7.6c-0.4,0.4-0.9,0.6-1.5,0.6C13.8,24,13.2,23.8,12.8,23.4z M5.1,4C5.1,4,5.1,4,5.1,4C4.5,4,4,4.5,4,5.1
	v7.6c0,0.3,0.1,0.6,0.3,0.8l9.2,9.2c0.4,0.4,1.1,0.4,1.6,0l7.6-7.6c0,0,0,0,0,0c0.4-0.4,0.4-1.1,0-1.5l-9.2-9.2
	C13.2,4.1,12.9,4,12.6,4H5.1z"/>
	<path d="M0,8.5V4.7c0-1.2,0.4-2.3,1.2-3.2C3-0.4,5.9-0.5,7.9,1.2S9.9,6,8.2,7.9c0,0,0,0,0,0C8,8.1,7.6,8.1,7.4,7.9
	c-0.2-0.2-0.2-0.5,0-0.7c0.6-0.7,1-1.6,1-2.5C8.4,2.7,6.7,1,4.7,1C2.6,1,1,2.7,1,4.7v3.8C1,8.8,0.8,9,0.5,9S0,8.8,0,8.5z"/>
	<circle cx="7.5" cy="7.5" r="1.5"/>
</svg>
