<svg xmlns="http://www.w3.org/2000/svg" viewBox="0 0 23.1 23.1">
	<path d="M17.2,23H6c-0.8,0-1.4-0.6-1.4-1.4V10.2c0-0.8,0.6-1.4,1.4-1.4h11.2c0.8,0,1.4,0.6,1.4,1.4v11.4C18.6,22.3,17.9,23,17.2,23z
	 M6,9.7c-0.2,0-0.4,0.2-0.4,0.4v11.4C5.6,21.8,5.7,22,6,22h11.2c0.2,0,0.4-0.2,0.4-0.4V10.1c0-0.2-0.2-0.4-0.4-0.4H6z"/>
	<path d="M11.9,0.4l3.9,3.9C16,4.5,16,4.8,15.8,5s-0.5,0.2-0.7,0l-3-3.1l0,12.7c0,0.3-0.2,0.5-0.5,0.5s-0.5-0.2-0.5-0.5l0-12.7L8,5
		C7.8,5.2,7.5,5.2,7.3,5s-0.2-0.5,0-0.7l3.9-3.9c0.1-0.1,0.2-0.1,0.4-0.1C11.7,0.3,11.8,0.3,11.9,0.4"/>
</svg>
