<svg xmlns="http://www.w3.org/2000/svg" viewBox="0 0 24 24">
    <path d="m18.499 23.498c-.24 0-.477-.058-.69-.17l-5.81-3.06-5.81 3.06c-.504.28-1.124.245-1.592-.091-.468-.336-.701-.912-.598-1.479l1.11-6.47-4.66-4.59c-.405-.395-.551-.986-.377-1.524.174-.538.638-.932 1.197-1.016l6.49-.94 2.9-5.89c.251-.507.769-.828 1.335-.828.566 0 1.084.321 1.335.828l2.9 5.89 6.49.94c.56.084 1.023.477 1.197 1.016.174.538.028 1.129-.377 1.524l-4.7 4.58 1.16 6.48c.075.438-.05.887-.34 1.223-.29.337-.715.526-1.16.517"></path>
</svg>
