<svg xmlns="http://www.w3.org/2000/svg" viewBox="0 0 23 8">
    <g stroke="none" stroke-width="1" fill="none" fill-rule="evenodd">
        <g transform="translate(-867.000000, -285.000000)">
            <g transform="translate(862.000000, 279.000000)">
                <g transform="translate(5.000000, 6.000000)">
                    <polyline fill="#142C90" points="7.68514947 6.78189671 8.8103788 0 10.6090175 0 9.483891 6.78189671 7.68514947 6.78189671"></polyline>
                    <path d="M16.009873,0.284544601 C15.6542397,0.148431925 15.0949169,0 14.3981554,0 C12.6198856,0 11.368122,0.920338028 11.3577318,2.23819718 C11.3464157,3.21302034 12.2509816,3.7566698 12.9329294,4.08067606 C13.6338059,4.41279499 13.8692832,4.62532707 13.8665056,4.92229108 C13.8616705,5.37650078 13.30708,5.58462598 12.7899354,5.58462598 C12.0698215,5.58462598 11.6872353,5.48216588 11.0957132,5.22897027 L10.8643509,5.12100156 L10.6128255,6.63907355 C11.0322403,6.8279687 11.8097576,6.99192488 12.6166966,7.00053834 C14.5065839,7.00053834 15.7345838,6.09131768 15.7489861,4.68401878 C15.7554671,3.91101095 15.2761799,3.32509546 14.2381872,2.84133959 C13.6096307,2.5268482 13.2238554,2.31852269 13.228279,2.00022535 C13.2286905,1.71838498 13.5541819,1.41661346 14.258659,1.41661346 C14.846992,1.40739906 15.2728879,1.53940532 15.6047576,1.67722066 L15.7662688,1.75474178 L16.009873,0.284544601" fill="#142C90"></path>
                    <path d="M18.5211445,4.37052895 C18.670208,3.98071987 19.2376577,2.47486698 19.2376577,2.47486698 C19.2271646,2.49279499 19.3858983,2.08205321 19.4767355,1.82785603 L19.5981262,2.41276995 C19.5981262,2.41276995 19.9432664,4.03149922 20.014352,4.37052895 L18.5211445,4.37052895 L18.5211445,4.37052895 Z M20.7401238,0 L19.3500984,0 C18.9189559,0 18.596242,0.11998748 18.4073665,0.562178404 L15.7362584,6.77738967 L17.6254257,6.77738967 C17.6254257,6.77738967 17.9336344,5.94128326 18.0035883,5.75779656 C18.2096438,5.75779656 20.0453169,5.76130203 20.3073354,5.76130203 C20.3612411,5.99797183 20.5263529,6.77738967 20.5263529,6.77738967 L22.1957826,6.77738967 L20.7401238,0 L20.7401238,0 Z" fill="#142C90"></path>
                    <path d="M6.270431,0 L4.50995838,4.62362441 L4.32139142,3.68375587 C3.99332812,2.60086385 2.97210381,1.42712989 1.82979749,0.839010955 L3.44038356,6.77027856 L5.34395309,6.76917684 L8.17646949,0 L6.270431,0" fill="#142C90"></path>
                    <path d="M2.92438235,0 L0.0238666305,0 L0,0.140519562 C2.25693969,0.70229734 3.75025007,2.05831612 4.37006235,3.68836307 L3.73975698,0.572194053 C3.63101979,0.142422535 3.31499268,0.0150234742 2.92438235,0" fill="#EC982D"></path>
                </g>
            </g>
        </g>
    </g>
</svg>