<svg xmlns="http://www.w3.org/2000/svg" viewBox="0 0 24 24">
    <path d="m20 3.41c-.063-1.339-1.16-2.396-2.5-2.41-.651-.016-1.281.228-1.75.679-.469.451-.739 1.07-.75 1.721v4.07c-.414-.305-.915-.47-1.43-.47h-.15c-.762.013-1.473.383-1.92 1-.435-.62-1.143-.992-1.9-1h-.14c-.526.004-1.038.175-1.46.49v-4.09c-.013-.65-.284-1.268-.753-1.718-.469-.45-1.097-.695-1.747-.682-1.351-.022-2.467 1.049-2.5 2.4v10.82l-1.55 1.26c-.857.885-1.01 2.237-.37 3.29 1.21 1.88 4.65 6.23 10.59 6.23 4.59 0 8.33-3.13 8.33-7 0 0 0-14.41 0-14.59m-8 6c.011-.782.648-1.41 1.43-1.41h.15c.786.005 1.42.644 1.42 1.43v4.15c-.005.786-.644 1.42-1.43 1.42h-.15c-.786-.005-1.42-.644-1.42-1.43v-4.14-.02m-2.53-1.41h.14c.375.003.733.155.994.424.261.269.404.631.396 1.01v4.14c.008.375-.135.737-.396 1.01-.261.269-.619.422-.994.424h-.14-.11c.374-.919.157-1.974-.55-2.67-.228-.244-.504-.438-.81-.57v-2.33c.005-.385.163-.751.439-1.019.276-.268.647-.416 1.031-.411m-5.47-4.6c.043-.81.73-1.434 1.54-1.4.788-.011 1.438.613 1.46 1.4v8.19c-.596.012-1.165.251-1.59.67l-1.41 1.15v-10.01m15 1.33v13.27c0 3.33-3.29 6-7.33 6-5.44 0-8.67-4-9.75-5.77-.371-.643-.282-1.453.22-2l3.94-3.23c.558-.538 1.442-.538 2 0 .549.554.549 1.446 0 2l-2 1.58c-.172.129-.242.354-.174.558.068.204.259.342.474.342.685-.027 1.352.226 1.847.702.494.476.774 1.132.773 1.818 0 .276.224.5.5.5.276 0 .5-.224.5-.5-.005-1.481-.937-2.799-2.33-3.3l1.1-.85c.234.1.485.154.74.16h.14c.757-.008 1.465-.38 1.9-1 .447.617 1.158.987 1.92 1h.15c1.041-.003 1.963-.672 2.29-1.66.084-.245.128-.501.13-.76v-10.19c.036-.769.66-1.38 1.43-1.4.817-.006 1.492.634 1.53 1.45v1.28" transform="translate(0 -1)"></path>
</svg>
